<svg xmlns="http://www.w3.org/2000/svg" height="512pt" version="1.1" viewBox="0 0 512 512.00004" width="512pt">
<g id="surface1">
<path d="M 256 423.722656 L 256 512 L 344.273438 512 C 295.523438 512 256 472.476562 256 423.722656 Z M 256 423.722656 " style=" stroke:none;fill-rule:nonzero;fill:rgb(93.333333%,88.627451%,83.529412%);fill-opacity:1;" />
<path d="M 344.277344 167.722656 L 344.277344 0 L 256 0 L 256 423.722656 C 256 374.96875 295.523438 335.449219 344.273438 335.449219 C 357.539062 335.460938 370.628906 338.476562 382.5625 344.273438 L 439.429688 344.273438 C 429.59375 333.449219 430.402344 316.699219 441.230469 306.867188 C 452.058594 297.035156 468.808594 297.84375 478.640625 308.671875 C 487.808594 318.769531 487.808594 334.179688 478.640625 344.273438 L 512 344.273438 L 512 167.722656 Z M 300.136719 317.792969 C 285.511719 317.792969 273.65625 305.9375 273.65625 291.308594 C 273.65625 276.683594 285.511719 264.828125 300.136719 264.828125 C 314.761719 264.828125 326.621094 276.683594 326.621094 291.308594 C 326.621094 305.9375 314.761719 317.792969 300.136719 317.792969 Z M 379.585938 317.792969 C 364.960938 317.792969 353.101562 305.9375 353.101562 291.308594 C 353.101562 276.683594 364.960938 264.828125 379.585938 264.828125 C 394.210938 264.828125 406.070312 276.683594 406.070312 291.308594 C 406.070312 305.9375 394.210938 317.792969 379.585938 317.792969 Z M 379.585938 317.792969 " style=" stroke:none;fill-rule:nonzero;fill:rgb(93.333333%,88.627451%,83.529412%);fill-opacity:1;" />
<path d="M 256 335.449219 C 256 350.074219 244.144531 361.929688 229.515625 361.929688 C 214.890625 361.929688 203.035156 350.074219 203.035156 335.449219 C 203.035156 320.820312 214.890625 308.964844 229.515625 308.964844 C 244.144531 308.964844 256 320.820312 256 335.449219 L 256 0 L 167.722656 0 L 167.722656 167.722656 L 0 167.722656 L 0.441406 344.273438 L 167.722656 344.273438 L 167.722656 512 L 256 512 Z M 256 335.449219 " style=" stroke:none;fill-rule:nonzero;fill:rgb(85.098039%,80%,73.72549%);fill-opacity:1;" />
<path d="M 382.5625 344.277344 C 370.628906 338.476562 357.539062 335.460938 344.273438 335.449219 L 344.273438 512 C 393 512.019531 432.515625 472.539062 432.535156 423.816406 C 432.550781 389.898438 413.125 358.980469 382.5625 344.277344 Z M 382.5625 344.277344 " style=" stroke:none;fill-rule:nonzero;fill:rgb(81.568627%,68.235294%,53.72549%);fill-opacity:1;" />
<path d="M 344.277344 335.449219 C 295.523438 335.449219 256 374.96875 256 423.722656 C 256 472.476562 295.523438 512 344.277344 512 Z M 344.277344 335.449219 " style=" stroke:none;fill-rule:nonzero;fill:rgb(76.862745%,60.392157%,42.352941%);fill-opacity:1;" />
<path d="M 203.035156 335.449219 C 203.035156 350.074219 214.890625 361.929688 229.515625 361.929688 L 229.515625 308.964844 C 214.890625 308.964844 203.035156 320.820312 203.035156 335.449219 Z M 203.035156 335.449219 " style=" stroke:none;fill-rule:nonzero;fill:rgb(76.862745%,60.392157%,42.352941%);fill-opacity:1;" />
<path d="M 229.515625 308.964844 L 229.515625 361.929688 C 244.144531 361.929688 256 350.074219 256 335.449219 C 256 320.820312 244.144531 308.964844 229.515625 308.964844 Z M 229.515625 308.964844 " style=" stroke:none;fill-rule:nonzero;fill:rgb(81.568627%,68.235294%,53.72549%);fill-opacity:1;" />
<path d="M 459.035156 300.136719 L 459.035156 353.101562 C 473.660156 353.101562 485.515625 341.246094 485.515625 326.621094 C 485.515625 311.996094 473.660156 300.136719 459.035156 300.136719 Z M 459.035156 300.136719 " style=" stroke:none;fill-rule:nonzero;fill:rgb(81.568627%,68.235294%,53.72549%);fill-opacity:1;" />
<path d="M 432.550781 326.621094 C 432.683594 341.191406 444.464844 352.96875 459.035156 353.101562 L 459.035156 300.136719 C 444.40625 300.136719 432.550781 311.996094 432.550781 326.621094 Z M 432.550781 326.621094 " style=" stroke:none;fill-rule:nonzero;fill:rgb(76.862745%,60.392157%,42.352941%);fill-opacity:1;" />
<path d="M 273.65625 291.308594 C 273.65625 305.9375 285.511719 317.792969 300.136719 317.792969 L 300.136719 264.828125 C 285.511719 264.828125 273.65625 276.683594 273.65625 291.308594 Z M 273.65625 291.308594 " style=" stroke:none;fill-rule:nonzero;fill:rgb(76.862745%,60.392157%,42.352941%);fill-opacity:1;" />
<path d="M 300.136719 264.828125 L 300.136719 317.792969 C 314.761719 317.792969 326.621094 305.9375 326.621094 291.308594 C 326.621094 276.683594 314.761719 264.828125 300.136719 264.828125 Z M 300.136719 264.828125 " style=" stroke:none;fill-rule:nonzero;fill:rgb(81.568627%,68.235294%,53.72549%);fill-opacity:1;" />
<path d="M 379.585938 264.828125 L 379.585938 317.792969 C 394.210938 317.792969 406.070312 305.9375 406.070312 291.308594 C 406.070312 276.683594 394.210938 264.828125 379.585938 264.828125 Z M 379.585938 264.828125 " style=" stroke:none;fill-rule:nonzero;fill:rgb(81.568627%,68.235294%,53.72549%);fill-opacity:1;" />
<path d="M 353.101562 291.308594 C 353.101562 305.9375 364.960938 317.792969 379.585938 317.792969 L 379.585938 264.828125 C 364.960938 264.828125 353.101562 276.683594 353.101562 291.308594 Z M 353.101562 291.308594 " style=" stroke:none;fill-rule:nonzero;fill:rgb(76.862745%,60.392157%,42.352941%);fill-opacity:1;" />
</g>
</svg>