<?xml version="1.0" encoding="iso-8859-1"?>
<!-- Generator: Adobe Illustrator 21.0.0, SVG Export Plug-In . SVG Version: 6.00 Build 0)  -->
<svg version="1.1" id="Capa_1" xmlns="http://www.w3.org/2000/svg" xmlns:xlink="http://www.w3.org/1999/xlink" x="0px" y="0px"
	 viewBox="0 0 512 512" style="enable-background:new 0 0 512 512;" xml:space="preserve">
<path style="fill:#00884F;" d="M469.464,67.845c-56.715-56.714-148.667-56.714-205.382,0L256,75.927l-20.016,164.769L256,486.691
	l213.464-213.465C526.179,216.512,526.179,124.561,469.464,67.845z"/>
<path style="fill:#00CC76;" d="M247.918,67.845c-56.714-56.714-148.667-56.714-205.382,0c-56.715,56.715-56.715,148.668,0,205.382
	L256,486.691V75.927L247.918,67.845z"/>
<polygon style="fill:#EFE2DD;" points="296.708,199.989 296.708,148.053 256,148.053 235.984,240.989 256,333.34 296.708,333.34 
	296.708,281.404 348.644,281.404 348.644,199.989 "/>
<polygon style="fill:#FFF5F5;" points="215.292,148.053 215.292,199.989 163.356,199.989 163.356,281.404 215.292,281.404 
	215.292,333.34 256,333.34 256,148.053 "/>
<g>
</g>
<g>
</g>
<g>
</g>
<g>
</g>
<g>
</g>
<g>
</g>
<g>
</g>
<g>
</g>
<g>
</g>
<g>
</g>
<g>
</g>
<g>
</g>
<g>
</g>
<g>
</g>
<g>
</g>
</svg>
