<svg height="511pt" viewBox="0 -39 511.99875 511" width="511pt" xmlns="http://www.w3.org/2000/svg"><path d="m466.667969 190.238281c-1.46875 21.601563-20.730469 40.261719-54.238281 52.53125-25.742188 9.417969-57.789063 14.371094-92.101563 14.371094-6.347656 0-12.789063-.171875-19.269531-.511719-1.730469-.089844-3.460938-.191406-5.199219-.308594-43.402344-2.910156-83.78125-13.191406-113.710937-28.949218-31.570313-16.632813-48.148438-37.683594-46.691407-59.300782 1.460938-21.601562 20.722657-40.25 54.242188-52.519531 25.679687-9.410156 57.5-14.382812 92-14.382812 6.359375 0 12.847656.171875 19.359375.519531 1.738281.09375 3.46875.191406 5.210937.3125 43.390625 2.898438 83.769531 13.179688 113.710938 28.9375 31.566406 16.632812 48.148437 37.691406 46.6875 59.300781zm0 0" fill="#535f64"/><path d="m466.667969 190.238281c-1.46875 21.601563-20.730469 40.261719-54.238281 52.53125-25.742188 9.417969-57.789063 14.371094-92.101563 14.371094-6.347656 0-12.789063-.171875-19.269531-.511719v-154.941406c1.738281.09375 3.46875.191406 5.210937.3125 43.390625 2.898438 83.769531 13.179688 113.710938 28.9375 31.566406 16.632812 48.148437 37.691406 46.6875 59.300781zm0 0" fill="#3e494c"/><path d="m399.167969 97.28125c-22.800781 14.558594-54.28125 25.4375-88.628907 30.636719-3.171874.480469-6.332031.910156-9.480468 1.269531-11.0625 1.320312-21.949219 1.972656-32.472656 1.972656-9.449219 0-18.589844-.519531-27.277344-1.570312-8.691406-1.050782-16.921875-2.621094-24.539063-4.710938-27.890625-7.640625-44.742187-21.519531-47.433593-39.078125-2.6875-17.589843 9.242187-35.839843 33.613281-51.402343 22.808593-14.570313 54.289062-25.449219 88.628906-30.648438 3.148437-.480469 6.308594-.910156 9.480469-1.289062 10.769531-1.273438 21.660156-1.929688 32.488281-1.960938 19.140625 0 36.5625 2.121094 51.8125 6.300781 27.886719 7.636719 44.726563 21.519531 47.417969 39.078125 2.703125 17.582032-9.238282 35.832032-33.609375 51.402344zm0 0" fill="#7a8388"/><path d="m512 324.429688c0 26.988281-22.640625 51.898437-63.75 70.148437-39.421875 17.5-91.691406 27.140625-147.191406 27.140625-56.402344 0-108.878906-9.507812-147.78125-26.78125l-31.839844-122.117188c9.070312-6.78125 19.980469-13.019531 32.429688-18.539062 39.417968-17.5 91.699218-27.140625 147.191406-27.140625 55.5 0 107.769531 9.640625 147.191406 27.140625 41.109375 18.25 63.75 43.15625 63.75 70.148438zm0 0" fill="#7a8388"/><path d="m171.507812 365.089844c7.140626 23.359375 1.628907 46.480468-14.949218 58.917968-7.601563 5.710938-16.589844 8.492188-25.992188 8.492188-11.039062 0-22.648437-3.832031-33.230468-11.25-19.566407 13.710938-42.667969 15.160156-59.199219 2.78125-16.578125-12.433594-22.089844-35.5625-14.957031-58.933594-18.792969-14.519531-27.390626-36.207031-21.183594-55.878906 6.210937-19.757812 25.601562-32.320312 49.183594-32.96875 7.71875-22.929688 25.527343-38.082031 46.15625-38.082031 20.632812 0 38.441406 15.160156 46.171874 38.089843 23.570313.660157 42.949219 13.210938 49.171876 32.960938 6.207031 19.671875-2.390626 41.359375-21.171876 55.871094zm0 0" fill="#00e87b"/><path d="m171.507812 365.089844c7.140626 23.359375 1.628907 46.480468-14.949218 58.917968-7.601563 5.710938-16.589844 8.492188-25.992188 8.492188-11.039062 0-22.648437-3.832031-33.230468-11.25v-183.082031c20.632812 0 38.441406 15.160156 46.171874 38.089843 23.570313.660157 42.949219 13.210938 49.171876 32.960938 6.207031 19.671875-2.390626 41.359375-21.171876 55.871094zm0 0" fill="#00c97d"/><path d="m112.335938 333.371094v7.507812c0 8.28125-6.71875 15-15 15-8.289063 0-15-6.71875-15-15v-7.507812c0-8.292969 6.710937-15.011719 15-15.011719 8.28125 0 15 6.71875 15 15.011719zm0 0" fill="#fff"/><path d="m310.539062 127.917969c-3.171874.480469-6.332031.910156-9.480468 1.269531v-126.726562c10.769531-1.273438 21.660156-1.929688 32.488281-1.960938 19.140625 0 36.5625 2.121094 51.8125 6.300781 27.886719 7.636719 44.726563 21.519531 47.417969 39.078125 2.699218 17.582032-9.238282 35.832032-33.609375 51.402344-22.800781 14.558594-54.28125 25.4375-88.628907 30.636719zm0 0" fill="#535f64"/><path d="m512 324.429688c0 26.988281-22.640625 51.898437-63.75 70.148437-39.421875 17.5-91.691406 27.140625-147.191406 27.140625v-194.578125c55.5 0 107.769531 9.640625 147.191406 27.140625 41.109375 18.25 63.75 43.15625 63.75 70.148438zm0 0" fill="#535f64"/><path d="m112.335938 333.371094v7.507812c0 8.28125-6.71875 15-15 15v-37.519531c8.28125 0 15 6.71875 15 15.011719zm0 0" fill="#fff4f4"/></svg>